HIERARCHY
ROOT Hips
{
	OFFSET 0.00000 0.00000 0.00000
	CHANNELS 6 Xposition Yposition Zposition Zrotation Yrotation Xrotation 
	JOINT LHipJoint
	{
		OFFSET 0 0 0
		CHANNELS 3 Zrotation Yrotation Xrotation
		JOINT LeftHip
		{
			OFFSET 1.57093 -1.69714 0.87455
			CHANNELS 3 Zrotation Yrotation Xrotation
			JOINT LeftKnee
			{
				OFFSET 2.48056 -6.81529 0.00000
				CHANNELS 3 Zrotation Yrotation Xrotation
				JOINT LeftAnkle
				{
					OFFSET 2.62558 -7.21374 0.00000
					CHANNELS 3 Zrotation Yrotation Xrotation
					JOINT LeftToe
					{
						OFFSET 0.17911 -0.49210 2.16707
						CHANNELS 3 Zrotation Yrotation Xrotation
						End Site
						{
							OFFSET 0.00000 -0.00000 1.11848
						}
					}
				}
			}
		}
	}
	JOINT RHipJoint
	{
		OFFSET 0 0 0
		CHANNELS 3 Zrotation Yrotation Xrotation
		JOINT RightHip
		{
			OFFSET -1.69739 -1.69715 0.87455
			CHANNELS 3 Zrotation Yrotation Xrotation
			JOINT RightKnee
			{
				OFFSET -2.33658 -6.41972 0.00000
				CHANNELS 3 Zrotation Yrotation Xrotation
				JOINT RightAnkle
				{
					OFFSET -2.60856 -7.16696 0.00000
					CHANNELS 3 Zrotation Yrotation Xrotation
					JOINT RightToe
					{
						OFFSET -0.20854 -0.57296 2.11053
						CHANNELS 3 Zrotation Yrotation Xrotation
						End Site
						{
							OFFSET -0.00000 -0.00000 1.09848
						}
					}
				}
			}
		}
	}
	JOINT lowerback
	{
		OFFSET 0 0 0
		CHANNELS 3 Zrotation Yrotation Xrotation
		JOINT Chest
		{
			OFFSET 0.02563 2.15732 -0.03270
			CHANNELS 3 Zrotation Yrotation Xrotation
			JOINT Chest2
			{
				OFFSET 0.00281 2.14662 0.09285
				CHANNELS 3 Zrotation Yrotation Xrotation
				JOINT lowerneck
				{
					OFFSET 0 0 0
					CHANNELS 3 Zrotation Yrotation Xrotation
					JOINT Neck
					{
						OFFSET -0.04440 1.68397 0.17601
						CHANNELS 3 Zrotation Yrotation Xrotation
						JOINT Head
						{
							OFFSET 0.06040 1.66995 -0.35615
							CHANNELS 3 Zrotation Yrotation Xrotation
							End Site
							{
								OFFSET 0.02405 1.72189 -0.14044
							}
						}
					}
				}
				JOINT LeftCollar
				{
					OFFSET 0 0 0
					CHANNELS 3 Zrotation Yrotation Xrotation
					JOINT LeftShoulder
					{
						OFFSET 2.98955 1.90907 -0.21660
CHANNELS 3 Zrotation Xrotation Yrotation
						JOINT LeftElbow
						{
OFFSET 0 -4.913770 0.000000
CHANNELS 3 Zrotation Xrotation Yrotation
							JOINT LeftWrist
							{
OFFSET 0 -3.002910 -0.000000
CHANNELS 3 Zrotation Xrotation Yrotation
								JOINT lhand
								{
									OFFSET 0 0 0
CHANNELS 3 Zrotation Xrotation Yrotation
									JOINT LFingers
									{
OFFSET 0 -0.450920 -0.000000
CHANNELS 3 Zrotation Xrotation Yrotation
										End Site
										{
OFFSET 0 -0.363550 -0.000000
										}
									}
								}
								JOINT LThumb
								{
OFFSET 0 0.000000 0.000000
CHANNELS 3 Zrotation Xrotation Yrotation
									End Site
									{
OFFSET 0 -0.369100 0.369100
									}
								}
							}
						}
					}
				}
				JOINT RightCollar
				{
					OFFSET 0 0 0
					CHANNELS 3 Zrotation Yrotation Xrotation
					JOINT RightShoulder
					{
						OFFSET -2.80452 1.90886 -0.21152
CHANNELS 3 Zrotation Xrotation Yrotation
						JOINT RightElbow
						{
OFFSET 0 -4.867250 0.000000
CHANNELS 3 Zrotation Xrotation Yrotation
							JOINT RightWrist
							{
OFFSET 0 -3.171440 -0.000000
CHANNELS 3 Zrotation Xrotation Yrotation
								JOINT rhand
								{
									OFFSET 0 0 0
CHANNELS 3 Zrotation Xrotation Yrotation
									JOINT RFingers
									{
OFFSET 0 -0.419370 -0.000000
CHANNELS 3 Zrotation Xrotation Yrotation
										End Site
										{
OFFSET 0 -0.338100 -0.000000
										}
									}
								}
								JOINT RThumb
								{
OFFSET 0 0.000000 0.000000
CHANNELS 3 Zrotation Xrotation Yrotation
									End Site
									{
OFFSET 0 -0.343270 0.343270
									}
								}
							}
						}
					}
				}
			}
		}
	}
}
MOTION
Frames: 11
Frame Time: 0.008333333333333333
2.545728 15.029171 8.798208 14.402530 27.024193 114.357668 0.000000 0.000000 0.000000 -12.195753 -25.467073 -48.281949 2.069465 9.008703 25.823142 -0.123623 14.677217 -19.444776 1.072357 -6.582605 -18.484639 0.000000 0.000000 0.000000 12.807959 13.264325 -40.416103 -8.787957 -16.668975 55.353318 -4.828193 -9.285590 40.224662 -2.517355 -9.869503 28.555063 15.001287 5.762017 -16.815633 3.229452 5.486819 -7.214941 -3.833472 2.659363 2.484996 4.047404 4.542579 -16.675420 -3.919471 6.366850 27.293985 -1.182908 2.759950 11.995341 0.000000 0.000000 0.000000 73.587912 27.559584 -127.643600 19.855170 -30.467223 5.457774 13.861921 -64.678785 10.282432 0.000000 0.000000 0.000000 -7.125000 0.000000 0.000000 -9.327975 19.467557 -5.762341 0.000000 0.000000 0.000000 -160.398798 -44.603256 -79.064533 -13.985573 -22.714108 -2.822519 -31.632349 2.084585 2.705390 0.000000 0.000000 0.000000 7.125000 0.000000 0.000000 -4.099039 33.136699 -1.194276
2.504008 15.036906 8.750787 13.725503 26.783705 114.198240 0.000000 0.000000 0.000000 -11.314587 -26.365720 -48.813657 1.731083 8.281787 23.573312 -0.142145 14.341706 -18.709838 1.257049 -7.107456 -20.034160 0.000000 0.000000 0.000000 11.979520 12.985781 -41.137221 -9.742144 -17.261136 58.621400 -5.252318 -8.336740 42.164943 -2.422431 -9.695341 27.995842 14.955580 5.605335 -16.317118 3.000334 5.375170 -7.190613 -4.119169 2.585648 2.252931 4.332082 4.704209 -17.032778 -3.885869 6.484104 27.367938 -1.193414 2.833700 12.113087 0.000000 0.000000 0.000000 77.345953 25.729948 -131.678070 18.830830 -29.207716 4.948181 14.424598 -68.672147 7.849539 0.000000 0.000000 0.000000 -7.125000 0.000000 0.000000 -9.006866 21.913368 -5.056802 0.000000 0.000000 0.000000 -159.875706 -44.814890 -79.464017 -13.686512 -22.284659 -2.708108 -31.549188 3.629878 2.698778 0.000000 0.000000 0.000000 7.125000 0.000000 0.000000 -4.031103 33.126778 -1.175407
2.428848 15.041770 8.694708 12.498729 26.710224 113.293437 0.000000 0.000000 0.000000 -12.920532 -24.217700 -49.097100 1.763849 8.355120 23.798361 0.039650 11.602115 -17.074802 1.353137 -7.363798 -20.797705 0.000000 0.000000 0.000000 11.249301 13.302589 -41.982472 -10.780679 -17.824587 62.065416 -5.811451 -6.557206 44.730867 -2.350914 -9.561753 27.568738 14.789093 5.504147 -15.367161 2.791854 5.421703 -7.017090 -4.308963 2.595871 1.965190 4.568561 4.818298 -17.350209 -3.860648 6.552134 27.427206 -1.207030 2.881562 12.213441 0.000000 0.000000 0.000000 81.449033 23.043068 -136.549025 18.274642 -28.507367 4.679577 15.574198 -75.900885 4.782896 0.000000 0.000000 0.000000 -7.125000 0.000000 0.000000 -8.302331 25.013604 -4.057054 0.000000 0.000000 0.000000 -159.305365 -45.102549 -79.949726 -13.324973 -21.761496 -2.572607 -31.724953 5.294228 2.628592 0.000000 0.000000 0.000000 7.125000 0.000000 0.000000 -4.171884 33.049148 -1.224502
2.328850 15.043563 8.614765 11.043051 26.762381 112.127504 0.000000 0.000000 0.000000 -15.097986 -21.202431 -49.373450 2.099485 9.066839 26.007085 0.253403 7.897995 -15.509006 1.385284 -7.447117 -21.047056 0.000000 0.000000 0.000000 10.635169 14.018669 -43.228150 -11.785762 -18.297223 65.306570 -6.296523 -5.216060 46.893409 -2.360853 -9.580444 27.628483 14.592645 5.494059 -14.407765 2.626449 5.589355 -6.812769 -4.411314 2.672657 1.717565 4.667308 4.872044 -17.700218 -3.841818 6.589938 27.703288 -1.203690 2.900499 12.400495 0.000000 0.000000 0.000000 85.760247 19.233680 -142.344201 18.335419 -28.584391 4.708705 17.713175 -86.293633 1.611489 0.000000 0.000000 0.000000 -7.125000 0.000000 0.000000 -6.856778 28.266196 -2.817248 0.000000 0.000000 0.000000 -158.677866 -45.481866 -80.204726 -12.931103 -21.186032 -2.428460 -32.065161 6.835307 2.528736 0.000000 0.000000 0.000000 7.125000 0.000000 0.000000 -4.445054 32.940349 -1.316867
2.221981 15.042351 8.508212 9.735761 26.826830 111.196202 0.000000 0.000000 0.000000 -16.699599 -18.855350 -49.698012 2.677126 10.147893 29.461759 0.401045 4.230306 -14.298720 1.453339 -7.619787 -21.565326 0.000000 0.000000 0.000000 10.041074 14.768932 -45.096022 -12.605874 -18.634459 67.896027 -6.547055 -4.807716 47.948274 -2.395965 -9.646241 27.838667 14.447736 5.542292 -13.835593 2.509128 5.763284 -6.687581 -4.463993 2.757199 1.584988 4.557510 4.880979 -18.173034 -3.813897 6.642455 28.346188 -1.156917 2.901556 12.754826 0.000000 0.000000 0.000000 89.984093 14.600218 -148.096162 18.734603 -29.087375 4.901247 20.717620 -98.171857 -0.583389 0.000000 0.000000 0.000000 -7.125000 0.000000 0.000000 -4.634970 30.587291 -1.641374 0.000000 0.000000 0.000000 -158.041959 -45.954929 -80.019703 -12.545251 -20.617105 -2.290759 -32.324491 8.251195 2.415051 0.000000 0.000000 0.000000 7.125000 0.000000 0.000000 -4.651399 32.812584 -1.392626
2.125679 15.035671 8.396318 8.614912 26.901871 110.548656 0.000000 0.000000 0.000000 -17.459560 -17.644457 -49.671254 3.411681 11.328218 33.401067 0.470659 1.472031 -13.587741 1.559461 -7.880644 -22.352320 0.000000 0.000000 0.000000 9.458134 15.430759 -47.384952 -13.071904 -18.807873 69.348562 -6.561007 -4.912650 47.986130 -2.390868 -9.636729 27.808111 14.429284 5.623058 -13.626510 2.430476 5.907615 -6.654455 -4.525119 2.827461 1.543087 4.404722 4.848010 -18.618239 -3.988005 6.722845 29.026166 -1.176354 2.884306 13.133249 0.000000 0.000000 0.000000 94.037439 9.977120 -152.023423 18.989756 -29.405921 5.025829 23.946538 -109.017467 -1.428994 0.000000 0.000000 0.000000 -7.125000 0.000000 0.000000 -2.103743 31.539393 -0.694298 0.000000 0.000000 0.000000 -157.354904 -46.475676 -79.228310 -12.255706 -20.187005 -2.189740 -32.210111 9.625081 2.402660 0.000000 0.000000 0.000000 7.125000 0.000000 0.000000 -4.558028 32.795391 -1.366432
2.040137 15.021136 8.291973 7.546745 27.057249 109.972372 0.000000 0.000000 0.000000 -17.654537 -17.161318 -48.986591 4.225073 12.449744 37.348527 0.510048 -0.104086 -13.460786 1.631260 -8.051576 -22.870851 0.000000 0.000000 0.000000 8.990562 16.105119 -49.720009 -13.080441 -18.810946 69.375145 -6.416595 -5.252844 47.364683 -2.352728 -9.565151 27.579689 14.512987 5.739113 -13.536654 2.393267 6.069863 -6.662664 -4.585949 2.905656 1.525582 4.118341 4.778013 -19.083694 -4.100250 6.780606 29.683012 -1.153569 2.849073 13.503781 0.000000 0.000000 0.000000 97.957899 5.997567 -152.874679 18.843141 -29.223192 4.954105 27.311592 -117.140132 -1.463082 0.000000 0.000000 0.000000 -7.125000 0.000000 0.000000 0.590778 31.625490 0.193931 0.000000 0.000000 0.000000 -156.371663 -46.924183 -77.442443 -12.171655 -20.061574 -2.160830 -31.762886 10.874164 2.551391 0.000000 0.000000 0.000000 7.125000 0.000000 0.000000 -4.200120 32.959547 -1.242050
1.956482 15.004229 8.195677 6.635969 27.332575 109.494860 0.000000 0.000000 0.000000 -17.739264 -16.751290 -47.860329 5.077776 13.467567 41.150884 0.547062 -1.074535 -13.643701 1.658566 -8.115409 -23.065197 0.000000 0.000000 0.000000 8.708352 16.816512 -51.979104 -12.627560 -18.642907 67.964156 -6.156729 -6.048875 46.209335 -2.364500 -9.587180 27.649999 14.631599 5.859142 -13.466460 2.409479 6.233361 -6.693987 -4.608114 2.982909 1.490214 3.684346 4.685199 -19.517474 -4.040583 6.797177 30.174783 -1.046001 2.802932 13.786465 0.000000 0.000000 0.000000 101.714321 2.744720 -150.518346 18.326187 -28.572421 4.704385 30.675211 -122.837549 -0.889988 0.000000 0.000000 0.000000 -7.125000 0.000000 0.000000 3.269008 31.003226 1.123154 0.000000 0.000000 0.000000 -154.893636 -47.139718 -74.444329 -12.325322 -20.290688 -2.213877 -31.396568 11.753726 2.648793 0.000000 0.000000 0.000000 7.125000 0.000000 0.000000 -3.905367 33.064403 -1.144512
1.871289 14.992735 8.110765 6.029410 27.658535 109.214437 0.000000 0.000000 0.000000 -18.016051 -16.019802 -46.541443 5.943113 14.370790 44.748895 0.574386 -2.052760 -13.761236 1.666586 -8.133955 -23.121771 0.000000 0.000000 0.000000 8.501765 17.542354 -54.122551 -11.755848 -18.284145 65.211223 -5.823818 -7.155151 44.705314 -2.446231 -9.739491 28.137126 14.680620 5.921188 -13.393813 2.460840 6.331542 -6.745149 -4.570152 3.026219 1.410982 3.346059 4.555498 -19.802817 -4.062125 6.742241 30.293165 -1.001346 2.732819 13.883127 0.000000 0.000000 0.000000 105.351569 0.038181 -145.490437 17.596184 -27.636526 4.360547 33.342371 -127.225083 0.558696 0.000000 0.000000 0.000000 -7.125000 0.000000 0.000000 5.298967 29.290345 2.040491 0.000000 0.000000 0.000000 -153.095160 -47.089188 -71.011835 -12.591141 -20.685107 -2.306853 -31.323726 12.357179 2.359772 0.000000 0.000000 0.000000 7.125000 0.000000 0.000000 -3.837560 32.725210 -1.156017
1.791583 14.991413 8.049888 5.785683 27.998238 109.171416 0.000000 0.000000 0.000000 -18.463481 -14.944782 -45.081207 6.776636 15.139739 48.022511 0.576203 -3.147317 -13.611714 1.676125 -8.156205 -23.189516 0.000000 0.000000 0.000000 8.335364 18.244136 -55.974216 -10.483138 -17.670773 61.088844 -5.490797 -8.206720 43.195477 -2.534406 -9.900202 28.654324 14.723118 5.894663 -13.289870 2.490867 6.319090 -6.806965 -4.576711 3.010214 1.285019 3.237330 4.345654 -19.776132 -4.473090 6.590133 29.694742 -1.170201 2.611477 13.627890 0.000000 0.000000 0.000000 108.989904 -2.384048 -138.997271 16.832198 -26.635794 4.012030 34.728437 -131.155050 2.805132 0.000000 0.000000 0.000000 -7.125000 0.000000 0.000000 6.186857 26.556723 2.784136 0.000000 0.000000 0.000000 -151.223737 -46.771854 -67.762348 -12.822931 -21.027213 -2.389375 -31.599589 12.942510 1.832802 0.000000 0.000000 0.000000 7.125000 0.000000 0.000000 -4.043022 32.114414 -1.278004
1.728090 15.001379 8.024885 5.929579 28.344922 109.345337 0.000000 0.000000 0.000000 -18.927927 -13.767350 -43.400428 7.537185 15.767751 50.877409 0.545504 -4.061646 -13.160953 1.682947 -8.171777 -23.237026 0.000000 0.000000 0.000000 8.247745 18.842386 -57.280454 -8.863423 -16.717581 55.614505 -5.158599 -9.083907 41.691716 -2.538443 -9.907441 28.677622 14.861770 5.799357 -13.166356 2.466379 6.202894 -6.847795 -4.712722 2.939551 1.165750 3.237518 4.019825 -19.451051 -5.302050 6.329411 28.368056 -1.534383 2.418817 13.026848 0.000000 0.000000 0.000000 112.690923 -4.837918 -132.542993 16.172844 -25.754366 3.720786 35.078382 -134.657688 5.055988 0.000000 0.000000 0.000000 -7.125000 0.000000 0.000000 6.228492 23.815044 3.201301 0.000000 0.000000 0.000000 -149.363040 -46.125161 -64.702807 -12.945687 -21.207513 -2.433567 -32.112210 13.889381 1.637816 0.000000 0.000000 0.000000 7.125000 0.000000 0.000000 -4.447738 31.893252 -1.430122
